<svg width="0" height="0"><symbol xmlns="http://www.w3.org/2000/svg" id="add" viewBox="0 0 512 512"><path d="M480 224H288V32c0-17.673-14.327-32-32-32s-32 14.327-32 32v192H32c-17.673 0-32 14.327-32 32s14.327 32 32 32h192v192c0 17.673 14.327 32 32 32s32-14.327 32-32V288h192c17.673 0 32-14.327 32-32s-14.327-32-32-32z"/></symbol><symbol xmlns="http://www.w3.org/2000/svg" id="arrow" fill="none" viewBox="0 0 22 12"><path stroke="currentColor" stroke-linecap="round" stroke-linejoin="round" stroke-width="2" d="m1 1 10 10L21 1"/></symbol><symbol xmlns="http://www.w3.org/2000/svg" id="ban" viewBox="0 0 24 24"><path d="M12 0a12 12 0 1 0 12 12A12.013 12.013 0 0 0 12 0Zm0 2a9.951 9.951 0 0 1 6.325 2.261L4.261 18.325A9.994 9.994 0 0 1 12 2Zm0 20a9.946 9.946 0 0 1-6.325-2.261L19.739 5.675A9.994 9.994 0 0 1 12 22Z"/></symbol><symbol xmlns="http://www.w3.org/2000/svg" id="basket" viewBox="0 0 21 23"><path d="M19.606 4.375h-3.903V2c0-.315-.137-.617-.38-.84a1.366 1.366 0 0 0-.92-.347H6.598a1.37 1.37 0 0 0-.92.347 1.138 1.138 0 0 0-.381.84v2.375H1.395c-.465 0-.895.226-1.127.594a1.1 1.1 0 0 0 0 1.187c.232.368.662.594 1.127.594h18.21c.465 0 .895-.226 1.127-.594a1.1 1.1 0 0 0 0-1.187c-.232-.368-.662-.594-1.126-.594Zm-11.708 0V3.188h5.204v1.187H7.898ZM2.695 7.938h15.61v11.874c0 .63-.274 1.234-.762 1.68a2.733 2.733 0 0 1-1.84.695H5.297c-.69 0-1.352-.25-1.84-.695a2.276 2.276 0 0 1-.762-1.68V7.938Z"/></symbol><symbol xmlns="http://www.w3.org/2000/svg" id="calendar" viewBox="0 0 24 24"><path d="M19 2h-1V1a1 1 0 0 0-2 0v1H8V1a1 1 0 0 0-2 0v1H5a5.006 5.006 0 0 0-5 5v12a5.006 5.006 0 0 0 5 5h14a5.006 5.006 0 0 0 5-5V7a5.006 5.006 0 0 0-5-5ZM2 7a3 3 0 0 1 3-3h14a3 3 0 0 1 3 3v1H2Zm17 15H5a3 3 0 0 1-3-3v-9h20v9a3 3 0 0 1-3 3Z"/><circle cx="12" cy="15" r="1.5"/><circle cx="7" cy="15" r="1.5"/><circle cx="17" cy="15" r="1.5"/></symbol><symbol xmlns="http://www.w3.org/2000/svg" id="card-eye" viewBox="0 0 24 24"><path d="M5.5 13a1.5 1.5 0 1 1-.001 3.001A1.5 1.5 0 0 1 5.5 13Zm18.109 7.738C22.761 21.956 20.84 24 17.5 24s-5.262-2.044-6.11-3.262a2.15 2.15 0 0 1 0-2.476C12.238 17.044 14.159 15 17.5 15s5.263 2.043 6.11 3.262a2.151 2.151 0 0 1 0 2.476Zm-1.642-1.333c-.763-1.097-2.157-2.404-4.468-2.404s-3.705 1.308-4.468 2.405a.156.156 0 0 0 0 .19c.764 1.098 2.158 2.405 4.469 2.405s3.705-1.308 4.468-2.405a.158.158 0 0 0 0-.191Zm-12.968-.404a1 1 0 0 1-1 1h-3c-2.757 0-5-2.243-5-5V7A5.007 5.007 0 0 1 5 2h14c2.757 0 5 2.243 5 5v7a1 1 0 1 1-2 0V9H2v6c0 1.654 1.346 3 3 3h3a1 1 0 0 1 1 1ZM2 7h20c0-1.654-1.346-3-3-3H5C3.346 4 2 5.346 2 7Zm15.5 11a1.5 1.5 0 1 0-.001 2.999A1.5 1.5 0 0 0 17.5 18Z"/></symbol><symbol xmlns="http://www.w3.org/2000/svg" id="checkbox" viewBox="0 0 24 24"><path d="M19 0H5a5.006 5.006 0 0 0-5 5v14a5.006 5.006 0 0 0 5 5h14a5.006 5.006 0 0 0 5-5V5a5.006 5.006 0 0 0-5-5Zm3 19a3 3 0 0 1-3 3H5a3 3 0 0 1-3-3V5a3 3 0 0 1 3-3h14a3 3 0 0 1 3 3Z"/><path d="M9.333 15.919 5.414 12A1 1 0 0 0 4 12a1 1 0 0 0 0 1.414l3.919 3.919a2 2 0 0 0 2.829 0L20 8.081a1 1 0 0 0 0-1.414 1 1 0 0 0-1.414 0Z"/></symbol><symbol xmlns="http://www.w3.org/2000/svg" id="clear" viewBox="0 0 21 23"><path d="M23.715 2.285a1.013 1.013 0 0 0-1.43 0l-4.764 4.764-.32-.313a5.008 5.008 0 0 0-6.429-.479 16.618 16.618 0 0 1-4.548 2.428l-2.074.608a5.036 5.036 0 0 0-3.113 2.635A4.973 4.973 0 0 0 .9 15.947a12.95 12.95 0 0 0 12.112 8.064h.924a1.011 1.011 0 0 0 .578-.182 15.288 15.288 0 0 0 6.71-10.209 5.029 5.029 0 0 0-1.453-4.374l-.8-.784 4.747-4.747a1.013 1.013 0 0 0-.003-1.43Zm-10.107 19.7h-.6a11.3 11.3 0 0 1-4.308-.847l.011-.006a11.546 11.546 0 0 0 4.351-3.8l.518-.761a1.01 1.01 0 0 0-1.67-1.138l-.518.761A9.535 9.535 0 0 1 7.8 19.327l-1.251.63a10.757 10.757 0 0 1-2.583-2.57 11.625 11.625 0 0 0 4.377-2.664 1.011 1.011 0 0 0-1.414-1.446 9.617 9.617 0 0 1-3.98 2.32c-.061-.135-.127-.267-.182-.406a2.906 2.906 0 0 1 .085-2.381 3.023 3.023 0 0 1 1.864-1.578l2.073-.608a15.364 15.364 0 0 0 3.426-1.588l7.915 7.712a14.192 14.192 0 0 1-4.522 5.241Zm5.62-8.683a12.421 12.421 0 0 1-.309 1.387L11.948 7.9a3.011 3.011 0 0 1 1.755-.566 2.973 2.973 0 0 1 2.084.849l2.569 2.509a3.01 3.01 0 0 1 .872 2.614Z"/></symbol><symbol xmlns="http://www.w3.org/2000/svg" id="clients" viewBox="0 0 24 24"><path d="M7.058 4.962c.839 0 1.595.346 2.139.901a4.998 4.998 0 0 0-2.198 4.138c0 .328.036.647.097.958-.013 0-.025.004-.038.004a3 3 0 1 1 0-6ZM17 5c-.841 0-1.599.349-2.144.906A4.991 4.991 0 0 1 16.9 10.99c.034.001.066.01.1.01a3 3 0 1 0 0-6Zm-5 8a3 3 0 1 0 0-6 3 3 0 0 0 0 6Zm0 2c-1.754 0-3.335 1.063-3.935 2.646a1 1 0 1 0 1.871.709c.307-.811 1.137-1.354 2.065-1.354s1.758.544 2.065 1.354a1.001 1.001 0 0 0 1.289.582c.516-.196.776-.773.581-1.29-.6-1.582-2.181-2.646-3.935-2.646Zm3.7-1.803a1 1 0 1 0 .6 1.908c.223-.07.458-.105.7-.105.928 0 1.758.544 2.065 1.354a1.001 1.001 0 0 0 1.289.582c.516-.196.776-.773.581-1.29C20.335 14.064 18.754 13 17 13a4.33 4.33 0 0 0-1.3.197ZM7 13c-1.754 0-3.335 1.063-3.935 2.646a1 1 0 1 0 1.87.708C5.242 15.543 6.072 15 7 15c.242 0 .478.035.7.105a1 1 0 1 0 .6-1.908A4.33 4.33 0 0 0 7 13Zm0 9H5c-1.654 0-3-1.346-3-3v-2a1 1 0 1 0-2 0v2c0 2.757 2.243 5 5 5h2a1 1 0 1 0 0-2Zm16-6a1 1 0 0 0-1 1v2c0 1.654-1.346 3-3 3h-2a1 1 0 1 0 0 2h2c2.757 0 5-2.243 5-5v-2a1 1 0 0 0-1-1ZM19 0h-2a1 1 0 1 0 0 2h2c1.654 0 3 1.346 3 3v2a1 1 0 1 0 2 0V5c0-2.757-2.243-5-5-5ZM1 8a1 1 0 0 0 1-1V5c0-1.654 1.346-3 3-3h2a1 1 0 1 0 0-2H5C2.243 0 0 2.243 0 5v2a1 1 0 0 0 1 1Z"/></symbol><symbol xmlns="http://www.w3.org/2000/svg" id="clip" viewBox="0 0 37 39"><path d="M3.691 33.75C-2.719 27.256.907 21.807 5.77 16.865l9.386-9.51a9.929 9.929 0 0 1 7.293-3.205 9.929 9.929 0 0 1 7.293 3.205 10.184 10.184 0 0 1 3.163 7.39c0 2.8-1.145 5.476-3.163 7.39l-9.386 9.51a1.463 1.463 0 0 1-2.077 0 1.503 1.503 0 0 1 0-2.12l9.37-9.495a7.18 7.18 0 0 0 2.303-5.277 7.18 7.18 0 0 0-2.303-5.278 7.002 7.002 0 0 0-5.208-2.332 7.002 7.002 0 0 0-5.209 2.332l-9.37 9.495c-5.525 5.598-6.026 8.674-2.093 12.674 5.688 5.748 10.992 5.748 16.68 0l8.339-8.45c2.979-3.018 4.142-7.418 3.052-11.542-1.09-4.123-4.27-7.345-8.34-8.45a11.688 11.688 0 0 0-11.39 3.094L2.644 17.91a1.461 1.461 0 0 1-2.221.144 1.503 1.503 0 0 1 .174-2.249L12.03 4.191A14.63 14.63 0 0 1 22.394 0a14.636 14.636 0 0 1 10.29 4.372A15.026 15.026 0 0 1 37 14.799a15.033 15.033 0 0 1-4.135 10.5l-8.34 8.45c-6.91 7.001-13.923 7.001-20.833 0Z"/></symbol><symbol xmlns="http://www.w3.org/2000/svg" id="clock" viewBox="0 0 24 24"><path d="M12 0a12 12 0 1 0 12 12A12.013 12.013 0 0 0 12 0Zm0 22a10 10 0 1 1 10-10 10.011 10.011 0 0 1-10 10Z"/><path d="M12 6a1 1 0 0 0-1 1v4.325l-3.371 2.112a1 1 0 0 0 1.062 1.7l3.84-2.4a1 1 0 0 0 .469-.858V7a1 1 0 0 0-1-1Z"/></symbol><symbol xmlns="http://www.w3.org/2000/svg" id="close" viewBox="0 0 10 10"><path d="M.134.78A.457.457 0 1 1 .78.134L5 4.354 9.22.134a.457.457 0 0 1 .646.646L5.646 5l4.22 4.22a.457.457 0 0 1-.646.646L5 5.646.78 9.866a.457.457 0 0 1-.646-.646L4.354 5 .134.78Z"/></symbol><symbol xmlns="http://www.w3.org/2000/svg" id="coins" viewBox="0 0 24 24"><path d="M16.5 0C12.294 0 9 1.977 9 4.5v2.587A12.829 12.829 0 0 0 7.5 7C3.294 7 0 8.977 0 11.5v8C0 22.023 3.294 24 7.5 24c3.416 0 6.231-1.304 7.167-3.146.597.087 1.207.146 1.833.146 4.206 0 7.5-1.977 7.5-4.5v-12C24 1.977 20.706 0 16.5 0Zm0 2C19.648 2 22 3.32 22 4.5S19.648 7 16.5 7 11 5.68 11 4.5 13.352 2 16.5 2Zm-9 7c3.148 0 5.5 1.32 5.5 2.5S10.648 14 7.5 14 2 12.68 2 11.5 4.352 9 7.5 9ZM2 14.582C3.36 15.457 5.303 16 7.5 16s4.14-.543 5.5-1.418v.918c0 1.18-2.352 2.5-5.5 2.5S2 16.68 2 15.5v-.918ZM7.5 22C4.352 22 2 20.68 2 19.5v-.918C3.36 19.457 5.303 20 7.5 20s4.14-.543 5.5-1.418v.918c0 1.18-2.352 2.5-5.5 2.5Zm9-3c-.514 0-1.012-.047-1.5-.116v-1.98c.492.058.99.096 1.5.096 2.197 0 4.14-.543 5.5-1.418v.918c0 1.18-2.352 2.5-5.5 2.5Zm0-4c-.514 0-1.012-.047-1.5-.116v-1.98c.492.058.99.096 1.5.096 2.197 0 4.14-.543 5.5-1.418v.918c0 1.18-2.352 2.5-5.5 2.5Zm0-4c-.542 0-1.066-.051-1.578-.127-.198-.887-.809-1.684-1.721-2.321.992.285 2.106.449 3.299.449 2.197 0 4.14-.543 5.5-1.418v.918c0 1.18-2.352 2.5-5.5 2.5Z"/></symbol><symbol xmlns="http://www.w3.org/2000/svg" id="collapse" fill="currentColor" viewBox="0 0 256 256"><path d="M216 40H40a16 16 0 0 0-16 16v144a16 16 0 0 0 16 16h176a16 16 0 0 0 16-16V56a16 16 0 0 0-16-16ZM40 56h40v144H40Zm176 144H96V56h120v144Z"/></symbol><symbol xmlns="http://www.w3.org/2000/svg" id="computer" viewBox="0 0 24 24"><path d="M24 10v6c0 2.757-2.243 5-5 5h-6v1h3a1 1 0 1 1 0 2H8a1 1 0 1 1 0-2h3v-1H5c-2.757 0-5-2.243-5-5v-6a4.996 4.996 0 0 1 3.751-4.842.999.999 0 1 1 .498 1.936A2.999 2.999 0 0 0 2 10v6c0 1.654 1.346 3 3 3h14c1.654 0 3-1.346 3-3v-6c0-1.37-.925-2.565-2.249-2.906a1 1 0 0 1-.72-1.217 1.005 1.005 0 0 1 1.218-.719A4.996 4.996 0 0 1 24 10ZM6.304 9.134l.953-.55a4.992 4.992 0 0 1 0-3.166l-.953-.55a.999.999 0 0 1-.366-1.366.999.999 0 0 1 1.366-.366l.956.552A5.004 5.004 0 0 1 11 2.103V1.002a1 1 0 1 1 2 0v1.101a5 5 0 0 1 2.74 1.585l.956-.552a1 1 0 1 1 1 1.732l-.953.55a4.992 4.992 0 0 1 0 3.166l.953.55A.999.999 0 0 1 17.195 11a.992.992 0 0 1-.499-.134l-.956-.552A5.004 5.004 0 0 1 13 11.899V13a1 1 0 1 1-2 0v-1.101a5 5 0 0 1-2.74-1.585l-.956.552a.998.998 0 0 1-1.366-.366 1 1 0 0 1 .366-1.366ZM9 7c0 1.654 1.346 3 3 3s3-1.346 3-3-1.346-3-3-3-3 1.346-3 3Z"/><path d="M12 8.5a1.5 1.5 0 1 0-.001-3.001A1.5 1.5 0 0 0 12 8.5"/></symbol><symbol xmlns="http://www.w3.org/2000/svg" id="dashboard" viewBox="0 0 24 24"><path d="M7 0H4a4 4 0 0 0-4 4v3a4 4 0 0 0 4 4h3a4 4 0 0 0 4-4V4a4 4 0 0 0-4-4Zm2 7a2 2 0 0 1-2 2H4a2 2 0 0 1-2-2V4a2 2 0 0 1 2-2h3a2 2 0 0 1 2 2Zm11-7h-3a4 4 0 0 0-4 4v3a4 4 0 0 0 4 4h3a4 4 0 0 0 4-4V4a4 4 0 0 0-4-4Zm2 7a2 2 0 0 1-2 2h-3a2 2 0 0 1-2-2V4a2 2 0 0 1 2-2h3a2 2 0 0 1 2 2ZM7 13H4a4 4 0 0 0-4 4v3a4 4 0 0 0 4 4h3a4 4 0 0 0 4-4v-3a4 4 0 0 0-4-4Zm2 7a2 2 0 0 1-2 2H4a2 2 0 0 1-2-2v-3a2 2 0 0 1 2-2h3a2 2 0 0 1 2 2Zm11-7h-3a4 4 0 0 0-4 4v3a4 4 0 0 0 4 4h3a4 4 0 0 0 4-4v-3a4 4 0 0 0-4-4Zm2 7a2 2 0 0 1-2 2h-3a2 2 0 0 1-2-2v-3a2 2 0 0 1 2-2h3a2 2 0 0 1 2 2Z"/></symbol><symbol xmlns="http://www.w3.org/2000/svg" id="deal" viewBox="0 0 24 24"><path d="M23.018 8.785a2.972 2.972 0 0 0-2.169-.782 2.983 2.983 0 0 0-2.085.981l-3.217 3.534a3.145 3.145 0 0 0-2.689-1.519H9.001v-1h.376a2.627 2.627 0 0 0 2.624-2.624 2.616 2.616 0 0 0-2.193-2.588l-3.285-.548a.625.625 0 0 1 .103-1.24H9.27c.356 0 .688.192.867.5a.998.998 0 1 0 1.73-1.001 3.009 3.009 0 0 0-2.598-1.5h-.268a1 1 0 1 0-2 0h-.376a2.627 2.627 0 0 0-2.624 2.624c0 1.288.923 2.377 2.193 2.588l3.285.548a.625.625 0 0 1-.103 1.24H6.732c-.356 0-.688-.192-.867-.5a.997.997 0 0 0-1.366-.365.998.998 0 0 0-.364 1.366 3.008 3.008 0 0 0 2.598 1.499h.268v1h-3c-2.206 0-4 1.794-4 4v5c0 2.206 1.794 4 4 4h4.965c2.85 0 5.57-1.22 7.467-3.348l6.804-7.637a3.021 3.021 0 0 0-.218-4.23Zm-1.275 2.899-6.805 7.638A8.007 8.007 0 0 1 8.965 22H4c-1.103 0-2-.897-2-2v-5c0-1.103.897-2 2-2h8.857c.63 0 1.143.512 1.143 1.142a1.15 1.15 0 0 1-.98 1.131l-5.161.737a1 1 0 1 0 .283 1.979l5.161-.737a3.162 3.162 0 0 0 2.514-2.058l4.427-4.865c.181-.2.43-.316.699-.329.271-.007.528.082.728.262.407.372.44 1.009.072 1.421Zm-8.742-7.668a1 1 0 0 1 1-1h4.076L16.787 1.7A1 1 0 1 1 18.215.299l2.177 2.221c.391.39.609.917.609 1.479s-.219 1.09-.616 1.487l-2.17 2.213c-.195.2-.455.3-.714.3a1.001 1.001 0 0 1-.714-1.701l1.258-1.284h-4.044a1 1 0 0 1-1-1Z"/></symbol><symbol xmlns="http://www.w3.org/2000/svg" id="debt" viewBox="0 0 24 24"><path d="M21.735 7.576A3.014 3.014 0 0 0 18.765 5h-3.617a3.45 3.45 0 0 0 .351-1.5c0-1.93-1.57-3.5-3.5-3.5s-3.5 1.57-3.5 3.5c0 .539.133 1.044.351 1.5H5.234a3.013 3.013 0 0 0-2.969 2.567L.011 22.35 0 24h24v-1.5L21.735 7.576ZM10.5 3.5c0-.827.673-1.5 1.5-1.5s1.5.673 1.5 1.5S12.827 5 12 5s-1.5-.673-1.5-1.5ZM2.088 22 4.245 7.859c.07-.49.496-.859.99-.859h13.531c.494 0 .92.369.991.868L21.912 22H2.088ZM10 13a.77.77 0 0 0 .645.761l3.04.507A2.761 2.761 0 0 1 16 17c0 1.654-1.346 3-3 3v1h-2v-1c-1.654 0-3-1.346-3-3h2c0 .552.449 1 1 1h2a1 1 0 0 0 1-1 .769.769 0 0 0-.645-.76l-3.04-.507A2.762 2.762 0 0 1 8 13c0-1.654 1.346-3 3-3V9h2v1c1.654 0 3 1.346 3 3h-2a1 1 0 0 0-1-1h-2c-.551 0-1 .448-1 1Z"/></symbol><symbol xmlns="http://www.w3.org/2000/svg" id="dollar" viewBox="0 0 24 24"><path d="M11 15a1 1 0 0 1-2 0s-.268 0-.268 0a3.01 3.01 0 0 1-2.598-1.499A1 1 0 0 1 7.865 12.5c.178.308.511.5.867.5H11c.551 0 1-.448 1-1a.768.768 0 0 0-.644-.76l-3.042-.507A2.762 2.762 0 0 1 5.999 8c0-1.654 1.346-3 3-3a1 1 0 0 1 2 0s.268 0 .268 0a3.01 3.01 0 0 1 2.598 1.499A1 1 0 1 1 12.134 7.5a1.005 1.005 0 0 0-.867-.5H8.999c-.551 0-1 .448-1 1 0 .378.271.698.644.76l3.042.507A2.762 2.762 0 0 1 14 12c0 1.654-1.346 3-3 3Zm-1.89 2.951A7.985 7.985 0 0 1 2 10c0-4.411 3.589-8 8-8 1.249 0 2.445.28 3.555.831a1 1 0 1 0 .891-1.791A9.903 9.903 0 0 0 10.001 0C4.486 0 0 4.486 0 10c0 5.106 3.933 9.385 9.001 9.945a1 1 0 0 0 .109-1.994Zm14.597.223a.999.999 0 0 0-1.414 0L19 21.467V1a1 1 0 1 0-2 0v20.367l-3.293-3.293a.999.999 0 1 0-1.414 1.414l3.636 3.636c.585.584 1.354.876 2.121.876s1.537-.292 2.122-.877l3.535-3.536a.999.999 0 0 0 0-1.414Z"/></symbol><symbol xmlns="http://www.w3.org/2000/svg" id="done_circle" viewBox="0 0 24 24"><path d="m16.298 8.288 1.404 1.425-5.793 5.707a2.001 2.001 0 0 1-2.823-.005l-2.782-2.696 1.393-1.437 2.793 2.707 5.809-5.701ZM24 12c0 6.617-5.383 12-12 12S0 18.617 0 12 5.383 0 12 0s12 5.383 12 12Zm-2 0c0-5.514-4.486-10-10-10S2 6.486 2 12s4.486 10 10 10 10-4.486 10-10Z"/></symbol><symbol xmlns="http://www.w3.org/2000/svg" id="done" viewBox="0 0 20 16"><path d="M19.542.934a1.386 1.386 0 0 0-2.02 0L6.918 11.882 2.465 7.274a1.45 1.45 0 0 0-.477-.317 1.415 1.415 0 0 0-1.113.02 1.454 1.454 0 0 0-.467.333 1.541 1.541 0 0 0 .036 2.12l5.465 5.636c.132.137.29.247.463.321a1.386 1.386 0 0 0 1.557-.321L19.542 3.09a1.506 1.506 0 0 0 0-2.157Z"/></symbol><symbol xmlns="http://www.w3.org/2000/svg" id="edit" viewBox="0 0 24 24"><path d="M18.656.93 6.464 13.122A4.966 4.966 0 0 0 5 16.657V18a1 1 0 0 0 1 1h1.343a4.966 4.966 0 0 0 3.535-1.464L23.07 5.344a3.125 3.125 0 0 0 0-4.414 3.194 3.194 0 0 0-4.414 0Zm3 3L9.464 16.122A3.02 3.02 0 0 1 7.343 17H7v-.343a3.02 3.02 0 0 1 .878-2.121L20.07 2.344a1.148 1.148 0 0 1 1.586 0 1.123 1.123 0 0 1 0 1.586Z"/><path d="M23 8.979a1 1 0 0 0-1 1V15h-4a3 3 0 0 0-3 3v4H5a3 3 0 0 1-3-3V5a3 3 0 0 1 3-3h9.042a1 1 0 0 0 0-2H5a5.006 5.006 0 0 0-5 5v14a5.006 5.006 0 0 0 5 5h11.343a4.968 4.968 0 0 0 3.536-1.464l2.656-2.658A4.968 4.968 0 0 0 24 16.343V9.979a1 1 0 0 0-1-1Zm-4.535 12.143a2.975 2.975 0 0 1-1.465.8V18a1 1 0 0 1 1-1h3.925a3.016 3.016 0 0 1-.8 1.464Z"/></symbol><symbol xmlns="http://www.w3.org/2000/svg" id="error" viewBox="0 0 24 24"><path d="M12 0a12 12 0 1 0 12 12A12.013 12.013 0 0 0 12 0Zm0 22a10 10 0 1 1 10-10 10.011 10.011 0 0 1-10 10Z"/><path d="M12 5a1 1 0 0 0-1 1v8a1 1 0 0 0 2 0V6a1 1 0 0 0-1-1Z"/><rect width="2" height="2" x="11" y="17" rx="1"/></symbol><symbol xmlns="http://www.w3.org/2000/svg" id="eye-off" viewBox="0 0 24 24"><path id="_01_align_center" d="M23.821 11.181a15.736 15.736 0 0 0-4.145-5.44l3.032-3.032-1.415-1.416L18 4.583A11.783 11.783 0 0 0 12 3C4.5 3 1.057 9.261.179 11.181a1.969 1.969 0 0 0 0 1.64 15.736 15.736 0 0 0 4.145 5.44l-3.031 3.032 1.414 1.414L6 19.417A11.783 11.783 0 0 0 12 21c7.5 0 10.943-6.261 11.821-8.181a1.968 1.968 0 0 0 0-1.638ZM2 12.011C2.75 10.366 5.693 5 12 5a9.847 9.847 0 0 1 4.518 1.068l-1.765 1.765a4.992 4.992 0 0 0-6.92 6.92l-2.079 2.079A13.647 13.647 0 0 1 2 12.011ZM15 12a3 3 0 0 1-3 3 2.951 2.951 0 0 1-1.285-.3l3.985-3.985A2.951 2.951 0 0 1 15 12Zm-6 0a3 3 0 0 1 3-3 2.951 2.951 0 0 1 1.285.3L9.3 13.285A2.951 2.951 0 0 1 9 12Zm3 7a9.847 9.847 0 0 1-4.518-1.068l1.765-1.765a4.992 4.992 0 0 0 6.92-6.92l2.078-2.078A13.584 13.584 0 0 1 22 12c-.764 1.657-3.708 7-10 7Z"/></symbol><symbol xmlns="http://www.w3.org/2000/svg" id="eye" viewBox="0 0 24 24"><path d="M23.271 9.419C21.72 6.893 18.192 2.655 12 2.655S2.28 6.893.729 9.419a4.908 4.908 0 0 0 0 5.162C2.28 17.107 5.808 21.345 12 21.345s9.72-4.238 11.271-6.764a4.908 4.908 0 0 0 0-5.162Zm-1.705 4.115C20.234 15.7 17.219 19.345 12 19.345S3.766 15.7 2.434 13.534a2.918 2.918 0 0 1 0-3.068C3.766 8.3 6.781 4.655 12 4.655s8.234 3.641 9.566 5.811a2.918 2.918 0 0 1 0 3.068Z"/><path d="M12 7a5 5 0 1 0 5 5 5.006 5.006 0 0 0-5-5Zm0 8a3 3 0 1 1 3-3 3 3 0 0 1-3 3Z"/></symbol><symbol xmlns="http://www.w3.org/2000/svg" id="file" viewBox="0 0 24 24"><path d="M19.949 5.536 16.465 2.05A6.958 6.958 0 0 0 11.515 0H7a5.006 5.006 0 0 0-5 5v14a5.006 5.006 0 0 0 5 5h10a5.006 5.006 0 0 0 5-5v-8.515a6.951 6.951 0 0 0-2.051-4.949ZM18.535 6.95A4.983 4.983 0 0 1 19.316 8H15a1 1 0 0 1-1-1V2.684a5.01 5.01 0 0 1 1.051.78ZM20 19a3 3 0 0 1-3 3H7a3 3 0 0 1-3-3V5a3 3 0 0 1 3-3h4.515c.164 0 .323.032.485.047V7a3 3 0 0 0 3 3h4.953c.015.162.047.32.047.485Z"/></symbol><symbol xmlns="http://www.w3.org/2000/svg" id="flag" viewBox="0 0 24 24"><path d="M15 3a3 3 0 0 0-3-3H0v24h2V13h8v1a3 3 0 0 0 3 3h11V4h-9zM2 2h10a1 1 0 0 1 1 1v8H2zm20 4v9h-9a1 1 0 0 1-1-1v-1h3V6z"/></symbol><symbol xmlns="http://www.w3.org/2000/svg" id="form_clear" viewBox="0 0 24 24"><path d="M12 2a10 10 0 1 0 10 10A10.016 10.016 0 0 0 12 2zm3.36 12.3a.754.754 0 0 1 0 1.06.748.748 0 0 1-1.06 0l-2.3-2.3-2.3 2.3a.748.748 0 0 1-1.06 0 .754.754 0 0 1 0-1.06l2.3-2.3-2.3-2.3A.75.75 0 0 1 9.7 8.64l2.3 2.3 2.3-2.3a.75.75 0 0 1 1.06 1.06l-2.3 2.3z"/></symbol><symbol xmlns="http://www.w3.org/2000/svg" id="handshake-money" viewBox="0 0 24 24"><path d="M23 18h-4.187c-.242 0-.48.04-.713.097l-5.214-4.648 1.134-1.046c.276-.26.638-.404 1.019-.404.336 0 1.222.323 2.008.666.504.22 1.048.334 1.598.334h4.356a1 1 0 0 0 0-2h-4.769a14.532 14.532 0 0 0-1.969-.779c1.368-1.381 2.071-3.421 1.584-5.603C17.35 2.393 15.54.608 13.31.137a6.007 6.007 0 0 0-7.308 5.862c0 1.647.665 3.138 1.739 4.223-.778.231-1.565.584-1.97.777H1a1 1 0 0 0 0 2h4.357c.554 0 1.1-.117 1.608-.338.743-.323 1.65-.662 2.035-.662.371 0 .727.138 1.001.388l.546.497-2.069 1.908c-.562.562-.642 1.425-.189 2.055a1.574 1.574 0 0 0 1.283.657c.417 0 .814-.163 1.087-.437l1.604-1.493 4.026 3.589-3.117 2.433c-.667.521-1.679.52-2.346 0l-3.794-2.961A3.01 3.01 0 0 0 5.186 18H1a1 1 0 0 0 0 2h4.187c.222 0 .44.075.615.211l3.794 2.962c.684.533 1.537.827 2.403.827s1.72-.293 2.403-.827l3.794-2.961c.175-.136.394-.211.615-.211h4.187a1 1 0 0 0 0-2ZM8.999 8.967a.771.771 0 0 1 .592-1.266c.227 0 .51.107.664.274a.7.7 0 0 0 .515.226h2.334a.59.59 0 0 0 .586-.46.576.576 0 0 0-.451-.677l-2.791-.559a2.178 2.178 0 0 1-1.725-2.439C8.875 2.986 9.831 2.2 10.922 2.2h.28v-.4a.8.8 0 1 1 1.6 0v.4h.405c.711 0 1.348.324 1.77.833a.771.771 0 0 1-.592 1.266c-.227 0-.51-.107-.664-.274a.7.7 0 0 0-.515-.226h-2.307a.591.591 0 0 0-.587.458.576.576 0 0 0 .449.678l2.792.559a2.177 2.177 0 0 1 1.725 2.439c-.153 1.08-1.108 1.865-2.199 1.865h-.28v.4a.8.8 0 1 1-1.6 0v-.4h-.431a2.298 2.298 0 0 1-1.77-.833Z"/></symbol><symbol xmlns="http://www.w3.org/2000/svg" id="handshake" viewBox="0 0 24 24"><path d="M23 15h-.667c-.25 0-.498.019-.745.057l-7.046-5.284 1.688-1.616a1 1 0 1 0-1.383-1.445l-4.173 3.995a.997.997 0 0 1-1.527-.135c-.274-.38-.19-.975.168-1.334l4.703-4.429c.891-.837 2.284-1.042 3.374-.495l2.316 1.158c.69.345 1.464.527 2.235.527h1.056a1 1 0 1 0 0-2h-1.056c-.463 0-.928-.109-1.342-.316l-2.314-1.158c-1.824-.913-4.153-.574-5.641.828l-.618.582-.7-.638a4.991 4.991 0 0 0-3.39-1.298c-.771 0-1.54.182-2.227.525L3.397 3.682c-.415.207-.88.316-1.343.316H1a1 1 0 1 0 0 2h1.056c.771 0 1.545-.183 2.236-.527l2.316-1.158c1.022-.514 2.458-.375 3.374.462l.587.535-2.646 2.492c-1.073 1.072-1.244 2.767-.398 3.938.52.723 1.553 1.259 2.444 1.259.793 0 1.554-.312 2.104-.863l1.006-.963 6.346 4.759-6.198 4.646a2.005 2.005 0 0 1-2.47-.011l-6.091-4.568a5.028 5.028 0 0 0-3-1H.999a1 1 0 1 0 0 2h.667c.645 0 1.284.213 1.8.6l6.077 4.558a4.003 4.003 0 0 0 2.461.846c.862 0 1.723-.279 2.437-.835l6.093-4.568a3.013 3.013 0 0 1 1.799-.6H23a1 1 0 1 0 0-2Z"/></symbol><symbol xmlns="http://www.w3.org/2000/svg" id="home" viewBox="0 0 17 19"><path d="M17 6.65v11.4c0 .252-.1.494-.277.672a.941.941 0 0 1-.667.278h-4.723c-.25 0-.49-.1-.668-.278a.953.953 0 0 1-.276-.672v-4.16a1.975 1.975 0 0 0-.423-1.28 1.954 1.954 0 0 0-1.145-.705 1.88 1.88 0 0 0-1.548.428c-.428.367-.67.906-.662 1.471v4.247a.942.942 0 0 1-.944.95H.944a.94.94 0 0 1-.667-.278A.953.953 0 0 1 0 18.05V6.65c0-.299.14-.58.378-.76L7.933.19a.941.941 0 0 1 1.134 0l7.555 5.7c.238.18.378.461.378.76Z"/></symbol><symbol xmlns="http://www.w3.org/2000/svg" id="invest" viewBox="0 0 24 24"><path d="M24 2v4a1 1 0 1 1-2 0V3.414l-4.063 4.062a3.45 3.45 0 0 1-4.875 0l-2.539-2.538a1.45 1.45 0 0 0-2.047 0l-6.769 6.769a.997.997 0 0 1-1.414 0 .999.999 0 0 1 0-1.414l6.769-6.769a3.45 3.45 0 0 1 4.875 0l2.539 2.538a1.449 1.449 0 0 0 2.047 0L20.585 2h-2.586a1 1 0 1 1 0-2h4c1.103 0 2 .897 2 2Zm-2.315 14.267-3.04-.506A.769.769 0 0 1 18 15a1 1 0 0 1 1-1h2.268c.356 0 .688.191.867.501a.996.996 0 0 0 1.366.364.998.998 0 0 0 .364-1.366A3.01 3.01 0 0 0 21.267 12h-.268v-1a1 1 0 1 0-2 0v1c-1.654 0-3 1.346-3 3 0 1.359.974 2.51 2.315 2.733l3.04.506a.769.769 0 0 1 .645.761 1 1 0 0 1-1 1h-2.268c-.356 0-.688-.191-.867-.501a.994.994 0 0 0-1.366-.364.998.998 0 0 0-.364 1.366A3.008 3.008 0 0 0 18.732 22H19v1a1 1 0 1 0 2 0v-1c1.654 0 3-1.346 3-3 0-1.359-.974-2.51-2.315-2.733ZM2 14a1 1 0 0 0-1 1v8a1 1 0 1 0 2 0v-8a1 1 0 0 0-1-1Zm5-4.5a1 1 0 0 0-1 1V23a1 1 0 1 0 2 0V10.5a1 1 0 0 0-1-1Zm5 0a1 1 0 0 0-1 1V23a1 1 0 1 0 2 0V10.5a1 1 0 0 0-1-1Z"/></symbol><symbol xmlns="http://www.w3.org/2000/svg" id="light" viewBox="0 0 256 256"><path d="M120 40V16a8 8 0 0 1 16 0v24a8 8 0 0 1-16 0Zm72 88a64 64 0 1 1-64-64 64.07 64.07 0 0 1 64 64Zm-16 0a48 48 0 1 0-48 48 48.05 48.05 0 0 0 48-48ZM58.34 69.66a8 8 0 0 0 11.32-11.32l-16-16a8 8 0 0 0-11.32 11.32Zm0 116.68-16 16a8 8 0 0 0 11.32 11.32l16-16a8 8 0 0 0-11.32-11.32ZM192 72a8 8 0 0 0 5.66-2.34l16-16a8 8 0 0 0-11.32-11.32l-16 16A8 8 0 0 0 192 72Zm5.66 114.34a8 8 0 0 0-11.32 11.32l16 16a8 8 0 0 0 11.32-11.32ZM48 128a8 8 0 0 0-8-8H16a8 8 0 0 0 0 16h24a8 8 0 0 0 8-8Zm80 80a8 8 0 0 0-8 8v24a8 8 0 0 0 16 0v-24a8 8 0 0 0-8-8Zm112-88h-24a8 8 0 0 0 0 16h24a8 8 0 0 0 0-16Z"/></symbol><symbol xmlns="http://www.w3.org/2000/svg" id="logout" viewBox="0 0 24 24"><path d="M22.829 9.172 18.95 5.293a1 1 0 0 0-1.414 1.414l3.879 3.879a2.057 2.057 0 0 1 .3.39c-.015 0-.027-.008-.042-.008L5.989 11a1 1 0 0 0 0 2l15.678-.032c.028 0 .051-.014.078-.016a2 2 0 0 1-.334.462l-3.879 3.879a1 1 0 1 0 1.414 1.414l3.879-3.879a4 4 0 0 0 0-5.656Z"/><path d="M7 22H5a3 3 0 0 1-3-3V5a3 3 0 0 1 3-3h2a1 1 0 0 0 0-2H5a5.006 5.006 0 0 0-5 5v14a5.006 5.006 0 0 0 5 5h2a1 1 0 0 0 0-2Z"/></symbol><symbol xmlns="http://www.w3.org/2000/svg" id="long_arrow" viewBox="0 0 55 24"><path d="M54.06 13.06a1.5 1.5 0 0 0 0-2.12l-9.545-9.547a1.5 1.5 0 1 0-2.122 2.122L50.88 12l-8.486 8.485a1.5 1.5 0 1 0 2.122 2.122l9.546-9.546ZM0 13.5h53v-3H0v3Z"/></symbol><symbol xmlns="http://www.w3.org/2000/svg" id="menu-dots" viewBox="0 0 24 24"><circle cx="21.517" cy="12.066" r="2.5"/><circle cx="12" cy="12" r="2.5"/><circle cx="2.5" cy="12" r="2.5"/></symbol><symbol xmlns="http://www.w3.org/2000/svg" id="moon" viewBox="0 0 256 256"><path d="M233.54 142.23a8 8 0 0 0-8-2 88.08 88.08 0 0 1-109.8-109.8 8 8 0 0 0-10-10 104.84 104.84 0 0 0-52.91 37A104 104 0 0 0 136 224a103.09 103.09 0 0 0 62.52-20.88 104.84 104.84 0 0 0 37-52.91 8 8 0 0 0-1.98-7.98Zm-44.64 48.11A88 88 0 0 1 65.66 67.11a89 89 0 0 1 31.4-26A106 106 0 0 0 96 56a104.11 104.11 0 0 0 104 104 106 106 0 0 0 14.92-1.06 89 89 0 0 1-26.02 31.4Z"/></symbol><symbol xmlns="http://www.w3.org/2000/svg" id="notification" viewBox="0 0 18 22"><path d="M15.75 12.328V8.822a6.538 6.538 0 0 0-1.597-4.267 6.783 6.783 0 0 0-4.028-2.25V1.103c0-.293-.119-.573-.33-.78A1.137 1.137 0 0 0 9 0c-.298 0-.585.116-.796.323-.21.207-.329.487-.329.78v1.202a6.783 6.783 0 0 0-4.028 2.25A6.538 6.538 0 0 0 2.25 8.822v3.506a3.37 3.37 0 0 0-1.628 1.205A3.263 3.263 0 0 0 0 15.438v2.205c0 .293.118.573.33.78.21.207.497.323.795.323h3.532a4.41 4.41 0 0 0 1.61 2.347A4.56 4.56 0 0 0 9 22a4.56 4.56 0 0 0 2.733-.907 4.408 4.408 0 0 0 1.61-2.347h3.532c.298 0 .584-.116.796-.323.21-.207.329-.487.329-.78v-2.205a3.264 3.264 0 0 0-.622-1.905 3.369 3.369 0 0 0-1.628-1.205ZM4.5 8.822a4.37 4.37 0 0 1 1.318-3.12A4.547 4.547 0 0 1 9 4.412c1.193 0 2.338.465 3.182 1.292A4.367 4.367 0 0 1 13.5 8.822v3.308h-9V8.822ZM9 19.849a2.285 2.285 0 0 1-1.117-.3 2.229 2.229 0 0 1-.818-.803h3.87a2.23 2.23 0 0 1-.818.804c-.34.193-.724.296-1.117.299Zm6.75-3.308H2.25v-1.103c0-.293.119-.573.33-.78.21-.207.497-.323.795-.323h11.25c.298 0 .585.116.796.323.21.207.329.487.329.78v1.103Z"/></symbol><symbol xmlns="http://www.w3.org/2000/svg" id="operation" viewBox="0 0 24 24"><path d="M24 8.5C24 3.813 20.187 0 15.5 0S7 3.813 7 8.5s3.813 8.5 8.5 8.5S24 13.187 24 8.5ZM15.5 15C11.916 15 9 12.084 9 8.5S11.916 2 15.5 2 22 4.916 22 8.5 19.084 15 15.5 15Zm-.789 4.191a1 1 0 0 1 .223 1.396A8.28 8.28 0 0 1 8.25 24C3.701 24 0 20.299 0 15.75a8.282 8.282 0 0 1 3.413-6.684.998.998 0 1 1 1.173 1.619 6.273 6.273 0 0 0-2.587 5.064 6.257 6.257 0 0 0 6.25 6.25 6.275 6.275 0 0 0 5.065-2.586.998.998 0 0 1 1.396-.223ZM18.805 6.75a2.55 2.55 0 0 0-2.506-2.545v-.474a.8.8 0 1 0-1.6 0V4.2h-.652c-.717 0-1.3.583-1.3 1.3v6c0 .717.583 1.3 1.3 1.3h.652v.45a.8.8 0 1 0 1.6 0v-.45h.143a2.553 2.553 0 0 0 2.55-2.55c0-.727-.305-1.383-.795-1.849a2.54 2.54 0 0 0 .608-1.651Zm-4.458-.95h1.908a.95.95 0 0 1 0 1.9h-1.908V5.8Zm2.094 5.4h-2.094V9.3h2.094a.95.95 0 0 1 0 1.9Zm7.009 10.125-2.224 2.361a.999.999 0 0 1-1.414.042 1.001 1.001 0 0 1-.042-1.414L21.008 21h-3.011a1 1 0 0 1 0-2h3.011l-1.239-1.314a1.001 1.001 0 0 1 1.456-1.372l2.244 2.382c.709.709.709 1.898-.021 2.629ZM.528 5.304c-.709-.71-.709-1.899.021-2.629L2.772.314a1 1 0 1 1 1.456 1.372L2.99 3H6a1 1 0 0 1 0 2H2.989l1.239 1.314a1.001 1.001 0 0 1-1.456 1.372L.528 5.304Z"/></symbol><symbol xmlns="http://www.w3.org/2000/svg" id="payout" viewBox="0 0 24 24"><path d="M17 14a1 1 0 0 1-1 1H8a1 1 0 0 1 0-2h8a1 1 0 0 1 1 1zm-4 3H8a1 1 0 0 0 0 2h5a1 1 0 0 0 0-2zm9-6.515V19a5.006 5.006 0 0 1-5 5H7a5.006 5.006 0 0 1-5-5V5a5.006 5.006 0 0 1 5-5h4.515a6.958 6.958 0 0 1 4.95 2.05l3.484 3.486A6.951 6.951 0 0 1 22 10.485zm-6.949-7.021A5.01 5.01 0 0 0 14 2.684V7a1 1 0 0 0 1 1h4.316a4.983 4.983 0 0 0-.781-1.05zM20 10.485c0-.165-.032-.323-.047-.485H15a3 3 0 0 1-3-3V2.047c-.162-.015-.321-.047-.485-.047H7a3 3 0 0 0-3 3v14a3 3 0 0 0 3 3h10a3 3 0 0 0 3-3z"/></symbol><symbol xmlns="http://www.w3.org/2000/svg" id="people" viewBox="0 0 24 24"><path d="M20.5 6h-2C16.57 6 15 7.57 15 9.5v4c0 1.391.822 2.585 2 3.149V23a1 1 0 0 0 2 0v-6h1v6a1 1 0 0 0 2 0v-6.351a3.495 3.495 0 0 0 2-3.149v-4C24 7.57 22.43 6 20.5 6ZM17 2.5a2.5 2.5 0 1 1 5 0 2.5 2.5 0 0 1-5 0Zm-5 0A2.5 2.5 0 0 1 14.5 0c.402 0 .777.104 1.114.273C15.234.932 15 1.686 15 2.5s.234 1.568.615 2.227A2.475 2.475 0 0 1 14.5 5 2.5 2.5 0 0 1 12 2.5Zm-5 0A2.5 2.5 0 0 1 9.5 0c.402 0 .777.104 1.114.273C10.234.932 10 1.686 10 2.5s.234 1.568.615 2.227A2.475 2.475 0 0 1 9.5 5 2.5 2.5 0 0 1 7 2.5Zm-5 0A2.5 2.5 0 0 1 4.5 0c.402 0 .777.104 1.114.273C5.234.932 5 1.686 5 2.5s.234 1.568.615 2.227A2.475 2.475 0 0 1 4.5 5 2.5 2.5 0 0 1 2 2.5ZM14.261 6A5.477 5.477 0 0 0 13 9.5V22a1 1 0 0 1-2 0v-6.051a3.522 3.522 0 0 1-1-2.449v-4C10 7.57 11.57 6 13.5 6h.761Zm-5 0C8.474 6.952 8 7.172 8 8.5V20a1 1 0 0 1-2 0v-5.051A3.522 3.522 0 0 1 5 12.5v-3C5 7.57 6.57 6 8.5 6h.761Zm-5 0C3.474 6.952 3 7.172 3 8.5V18a1 1 0 0 1-2 0v-4.051A3.522 3.522 0 0 1 0 11.5v-2C0 7.57 1.57 6 3.5 6h.761Z"/></symbol><symbol xmlns="http://www.w3.org/2000/svg" id="phone" viewBox="0 0 20 20"><path d="M17.521 11.032c-.22 0-.452-.07-.672-.12a9.454 9.454 0 0 1-1.315-.394 2.002 2.002 0 0 0-2.489 1.007l-.22.453a12.23 12.23 0 0 1-2.67-2.013 12.257 12.257 0 0 1-2.008-2.677l.422-.282A2.01 2.01 0 0 0 9.573 4.51c-.16-.43-.29-.871-.392-1.319a7.485 7.485 0 0 1-.12-.684A3.022 3.022 0 0 0 8.017.697 3.005 3.005 0 0 0 6.05 0H3.04A3.003 3.003 0 0 0 .75 1.025a3.022 3.022 0 0 0-.722 2.408 19.145 19.145 0 0 0 5.458 11.134c3.002 3 6.915 4.912 11.122 5.433h.381A3.006 3.006 0 0 0 20 16.97v-3.02a3.025 3.025 0 0 0-.718-1.904 3.01 3.01 0 0 0-1.76-1.014Zm.502 6.039a1.008 1.008 0 0 1-.726.969 1.051 1.051 0 0 1-.438.038 17.042 17.042 0 0 1-9.923-4.902 17.13 17.13 0 0 1-4.84-9.975 1.1 1.1 0 0 1 .25-.825 1.004 1.004 0 0 1 .753-.342H6.11a1.002 1.002 0 0 1 1.004.795c.04.275.09.547.15.815.116.53.27 1.052.462 1.56l-1.405.654a1.004 1.004 0 0 0-.584.956.993.993 0 0 0 .092.383 14.563 14.563 0 0 0 7.025 7.046c.245.1.519.1.763 0a1.003 1.003 0 0 0 .572-.524l.622-1.409c.52.186 1.049.34 1.586.463.268.06.539.11.813.151a1.004 1.004 0 0 1 .793 1.007l.02 3.14Z"/></symbol><symbol xmlns="http://www.w3.org/2000/svg" id="revenue" viewBox="0 0 24 24"><path d="M24 19c0 1.654-1.346 3-3 3v1a1 1 0 1 1-2 0v-1h-.268a3.01 3.01 0 0 1-2.598-1.499 1 1 0 1 1 1.73-1.001c.179.308.511.5.867.5h2.268a1 1 0 0 0 1-1 .768.768 0 0 0-.644-.76l-3.041-.507A2.761 2.761 0 0 1 15.999 15c0-1.654 1.346-3 3-3v-1a1 1 0 1 1 2 0v1h.268a3.01 3.01 0 0 1 2.598 1.499 1 1 0 1 1-1.73 1.001 1.007 1.007 0 0 0-.867-.5H19a1 1 0 0 0-1 1c0 .378.271.698.644.76l3.041.507A2.761 2.761 0 0 1 24 19ZM7 9a1 1 0 0 0-1 1v13a1 1 0 0 0 2 0V10a1 1 0 0 0-1-1Zm-5 3a1 1 0 0 0-1 1v10a1 1 0 0 0 2 0V13a1 1 0 0 0-1-1Zm10-6a1 1 0 0 0-1 1v16a1 1 0 0 0 2 0V7a1 1 0 0 0-1-1Zm10 2a1 1 0 0 0 1-1V1a1 1 0 1 0-2 0v6a1 1 0 0 0 1 1Zm-5 1a1 1 0 0 0 1-1V4a1 1 0 1 0-2 0v4a1 1 0 0 0 1 1Z"/></symbol><symbol xmlns="http://www.w3.org/2000/svg" id="search" viewBox="0 0 22 22"><path d="M9.168 17.181a8.22 8.22 0 0 0 4.748-1.515l5.034 4.987c.234.231.542.347.86.347.69 0 1.19-.526 1.19-1.2 0-.315-.106-.61-.34-.841l-5.002-4.966a8.01 8.01 0 0 0 1.678-4.903C17.336 4.64 13.66 1 9.168 1 4.664 1 1 4.64 1 9.09c0 4.45 3.664 8.091 8.168 8.091Zm0-1.747c-3.516 0-6.405-2.872-6.405-6.344 0-3.471 2.89-6.344 6.405-6.344 3.505 0 6.405 2.873 6.405 6.344 0 3.472-2.9 6.345-6.405 6.345Z"/></symbol><symbol xmlns="http://www.w3.org/2000/svg" id="settings" viewBox="0 0 24 24"><path d="M1 4.75h2.736a3.728 3.728 0 0 0 7.195 0H23a1 1 0 0 0 0-2H10.931a3.728 3.728 0 0 0-7.195 0H1a1 1 0 0 0 0 2ZM7.333 2a1.75 1.75 0 1 1-1.75 1.75A1.752 1.752 0 0 1 7.333 2ZM23 11h-2.736a3.727 3.727 0 0 0-7.194 0H1a1 1 0 0 0 0 2h12.07a3.727 3.727 0 0 0 7.194 0H23a1 1 0 0 0 0-2Zm-6.333 2.75a1.75 1.75 0 1 1 1.75-1.75 1.752 1.752 0 0 1-1.75 1.75ZM23 19.25H10.931a3.728 3.728 0 0 0-7.195 0H1a1 1 0 0 0 0 2h2.736a3.728 3.728 0 0 0 7.195 0H23a1 1 0 0 0 0-2ZM7.333 22a1.75 1.75 0 1 1 1.75-1.75A1.753 1.753 0 0 1 7.333 22Z"/></symbol><symbol xmlns="http://www.w3.org/2000/svg" id="sort_arrow" fill="none" stroke="currentColor" stroke-linecap="round" stroke-linejoin="round" stroke-width="3" viewBox="0 0 24 24"><path d="m6 9 6 6 6-6"/></symbol><symbol xmlns="http://www.w3.org/2000/svg" id="trash" viewBox="0 0 24 24"><path d="M15.707 11.707 13.414 14l2.293 2.293a.999.999 0 1 1-1.414 1.414L12 15.414l-2.293 2.293a.997.997 0 0 1-1.414 0 .999.999 0 0 1 0-1.414L10.586 14l-2.293-2.293a.999.999 0 1 1 1.414-1.414L12 12.586l2.293-2.293a.999.999 0 1 1 1.414 1.414ZM23 5a1 1 0 0 1-1 1h-.885l-1.276 13.472A4.98 4.98 0 0 1 14.861 24H9.134a4.98 4.98 0 0 1-4.977-4.521L2.861 6h-.86a1 1 0 1 1 0-2h4.101a5.01 5.01 0 0 1 4.899-4h2A5.009 5.009 0 0 1 17.9 4h4.101a1 1 0 0 1 1 1ZM8.172 4h7.656A3.004 3.004 0 0 0 13 2h-2a3.004 3.004 0 0 0-2.828 2Zm10.934 2H4.87l1.278 13.287A2.987 2.987 0 0 0 9.134 22h5.727a2.988 2.988 0 0 0 2.987-2.718L19.106 6Z"/></symbol><symbol xmlns="http://www.w3.org/2000/svg" id="user" viewBox="0 0 256 256"><path d="M230.92 212c-15.23-26.33-38.7-45.21-66.09-54.16a72 72 0 1 0-73.66 0c-27.39 8.94-50.86 27.82-66.09 54.16a8 8 0 1 0 13.85 8c18.84-32.56 52.14-52 89.07-52s70.23 19.44 89.07 52a8 8 0 1 0 13.85-8ZM72 96a56 56 0 1 1 56 56 56.06 56.06 0 0 1-56-56Z"/></symbol><symbol xmlns="http://www.w3.org/2000/svg" id="vault" viewBox="0 0 24 24"><path d="M19 2H5C2.24 2 0 4.24 0 7v10c0 2.05 1.24 3.81 3 4.58V23c0 .55.45 1 1 1s1-.45 1-1v-1h14v1c0 .55.45 1 1 1s1-.45 1-1v-1.42c1.76-.77 3-2.54 3-4.58V7c0-2.76-2.24-5-5-5Zm3 15c0 1.65-1.35 3-3 3H5c-1.65 0-3-1.35-3-3h1c.55 0 1-.45 1-1s-.45-1-1-1H2V9h1c.55 0 1-.45 1-1s-.45-1-1-1H2c0-1.65 1.35-3 3-3h14c1.65 0 3 1.35 3 3v10ZM13 6c-3.31 0-6 2.69-6 6s2.69 6 6 6 6-2.69 6-6-2.69-6-6-6Zm0 10c-2.21 0-4-1.79-4-4a3.999 3.999 0 0 1 7.87-1H14c-.55 0-1 .45-1 1s.45 1 1 1h2.87c-.45 1.72-2.01 3-3.87 3Z"/></symbol><symbol xmlns="http://www.w3.org/2000/svg" id="work-time" viewBox="0 0 24 24"><path d="M17 10c-3.859 0-7 3.14-7 7s3.141 7 7 7 7-3.14 7-7-3.141-7-7-7Zm0 12c-2.757 0-5-2.243-5-5s2.243-5 5-5 5 2.243 5 5-2.243 5-5 5Zm1.707-4.707a.999.999 0 1 1-1.414 1.414l-1-1A1 1 0 0 1 16 17v-2a1 1 0 1 1 2 0v1.586l.707.707ZM9 22H5c-1.654 0-3-1.346-3-3v-5h6a1 1 0 1 0 0-2H2V9c0-1.654 1.346-3 3-3h14c1.654 0 3 1.346 3 3a1 1 0 1 0 2 0c0-2.757-2.243-5-5-5h-1.101A5.01 5.01 0 0 0 13 0h-2a5.009 5.009 0 0 0-4.899 4H5C2.243 4 0 6.243 0 9v10c0 2.757 2.243 5 5 5h4a1 1 0 1 0 0-2Zm2-20h2c1.304 0 2.415.836 2.828 2H8.172A3.004 3.004 0 0 1 11 2Z"/></symbol></svg>